<svg xmlns="http://www.w3.org/2000/svg" viewBox="0 0 316.58 99.83"><defs><style>.cls-1{fill:#231f20;}</style></defs><title>Asset 1</title><g id="Layer_2" data-name="Layer 2"><g id="Layer_1-2" data-name="Layer 1"><path class="cls-1" d="M144.1,92.16H140l-.79,7.67h-7.07l5.15-46.25h10.37l5.22,46.25h-8Zm-3.3-7.53h2.91l-1.39-17.17Zm21.68,6.67a.86.86,0,0,0,.85.86h2.12a.87.87,0,0,0,.86-.86V53.58h7.79V92.76A7.08,7.08,0,0,1,167,99.83h-5.48a7.08,7.08,0,0,1-7.07-7.07V53.58h8Zm14.71-23.58V60.65a7.08,7.08,0,0,1,7.07-7.07h5.68A7.08,7.08,0,0,1,197,60.65v6.87l-8,1.19V62.1a.87.87,0,0,0-.86-.85H186a.87.87,0,0,0-.86.85v3.11a6.31,6.31,0,0,0,2.12,5l5.08,5c3,2.9,4.63,5.35,4.63,9.44v8.13a7.08,7.08,0,0,1-7.07,7.07h-5.68a7.08,7.08,0,0,1-7.07-7.07V84.17l8-1.12V91.3a.87.87,0,0,0,.86.86h2.12a.87.87,0,0,0,.86-.86V88.2c0-3.44-.53-4.82-2.71-6.94L181,76.05c-2.45-2.38-3.77-4.5-3.77-8.33M212.8,99.83h-8V61.25H199V53.58h19.62v7.67H212.8Zm20.08-17a1.91,1.91,0,0,0-2-2h-1.78v19.1h-8V53.58h12.75a7.09,7.09,0,0,1,7.07,7.07V71.49A5.42,5.42,0,0,1,237,76.9a5.41,5.41,0,0,1,3.9,5.35v10.9a23.57,23.57,0,0,0,.85,6.68h-8.32a49.22,49.22,0,0,1-.53-8.13Zm0-20.68a.87.87,0,0,0-.86-.85h-3V73.07h3a.87.87,0,0,0,.86-.86Zm22.26,30.06h-4.09l-.79,7.67h-7.07l5.15-46.25h10.37l5.22,46.25h-8Zm-3.3-7.53h2.91l-1.39-17.17Zm22.4,7.53H283v7.67H266.24V53.58h8Zm19.22,7.67h-8V53.58h8Zm14.34-7.67h-4.1l-.79,7.67h-7.07L301,53.58h10.37l5.22,46.25h-8Zm-3.31-7.53h2.91L306,67.46ZM143.64,37.72V0h8V39.17a7.07,7.07,0,0,1-7.06,7.07h-5.16a7.08,7.08,0,0,1-7.07-7.07V26.89l8-1.19v12a.87.87,0,0,0,.86.86h1.58a.88.88,0,0,0,.86-.86m19.29,8.52h-8V0h8Zm15.66-25.63V0h7.79V46.24h-7.79l-4.49-21.6v21.6h-7.8V0h7.8Zm31,18.56a7.08,7.08,0,0,1-7.07,7.07H189.75V0H202.5a7.08,7.08,0,0,1,7.07,7.07Zm-8-30.65a.88.88,0,0,0-.86-.86h-3V38.58h3a.88.88,0,0,0,.86-.86ZM220.8,46.24h-8V0h8Zm15.66-25.63V0h7.8V46.24h-7.8L232,24.64v21.6h-7.8V0H232Zm20.81,1.72h10V46.24h-3.57l-1.38-1.85a7.15,7.15,0,0,1-4.76,1.85h-3a7.08,7.08,0,0,1-7.07-7.07V7.07A7.08,7.08,0,0,1,254.56,0h5.68a7.08,7.08,0,0,1,7.07,7.07V17.64l-8,1.19V8.52a.88.88,0,0,0-.86-.86h-2.11a.87.87,0,0,0-.86.86v29.2a.87.87,0,0,0,.86.86h2.11a.88.88,0,0,0,.86-.86V30h-2.05Z"/><path class="cls-1" d="M71.3,0,49.91,21.39,35.65,7.13,28.52,0,0,28.52,21.39,49.91,0,71.3l7.13,7.13,21.39,21.4,21.39-21.4L71.3,99.83l49.92-49.92Zm-57,28.52L28.52,14.26,42.78,28.52,28.52,42.78Zm14.26,57L14.26,71.3,49.91,35.65,64.17,49.91ZM57,71.3,78.43,49.91,57,28.52h0L71.3,14.26,107,49.91,71.3,85.56Z"/></g></g></svg>